<?xml version="1.0" encoding="utf-8"?>
<svg height="16" viewbox="0 0 16 16" width="16" xmlns="http://www.w3.org/2000/svg">
    <g clip-path="url(#content-type-table-blocks)">
        <g clip-path="url(#content-type-table-dots)">
            <path d="M11.0601 5.63H11.5001C11.7653 5.63 12.0196 5.52463 12.2072 5.3371C12.3947 5.14956 12.5001 4.89522 12.5001 4.63C12.5001 4.36479 12.3947 4.11042 12.2072 3.92288C12.0196 3.73535 11.7653 3.63 11.5001 3.63H11.0601C10.7948 3.63 10.5405 3.73535 10.353 3.92288C10.1654 4.11042 10.0601 4.36479 10.0601 4.63C10.0601 4.89522 10.1654 5.14956 10.353 5.3371C10.5405 5.52463 10.7948 5.63 11.0601 5.63Z" fill="#111453"></path>
            <path d="M11.0601 9H11.5001C11.7653 9 12.0196 8.89463 12.2072 8.70709C12.3947 8.51956 12.5001 8.26522 12.5001 8C12.5001 7.73478 12.3947 7.48044 12.2072 7.29291C12.0196 7.10537 11.7653 7 11.5001 7H11.0601C10.7948 7 10.5405 7.10537 10.353 7.29291C10.1654 7.48044 10.0601 7.73478 10.0601 8C10.0601 8.26522 10.1654 8.51956 10.353 8.70709C10.5405 8.89463 10.7948 9 11.0601 9Z" fill="#111453"></path>
            <path d="M11.0601 12.37H11.5001C11.7653 12.37 12.0196 12.2647 12.2072 12.0771C12.3947 11.8896 12.5001 11.6352 12.5001 11.37C12.5001 11.1048 12.3947 10.8504 12.2072 10.6629C12.0196 10.4754 11.7653 10.37 11.5001 10.37H11.0601C10.7948 10.37 10.5405 10.4754 10.353 10.6629C10.1654 10.8504 10.0601 11.1048 10.0601 11.37C10.0601 11.6352 10.1654 11.8896 10.353 12.0771C10.5405 12.2647 10.7948 12.37 11.0601 12.37Z" fill="#111453"></path>
            <path d="M4.87012 5.63H7.98012C8.24533 5.63 8.49969 5.52463 8.68722 5.3371C8.87476 5.14956 8.98012 4.89522 8.98012 4.63C8.98012 4.36479 8.87476 4.11042 8.68722 3.92288C8.49969 3.73535 8.24533 3.63 7.98012 3.63H4.87012C4.6049 3.63 4.35055 3.73535 4.16301 3.92288C3.97547 4.11042 3.87012 4.36479 3.87012 4.63C3.87012 4.89522 3.97547 5.14956 4.16301 5.3371C4.35055 5.52463 4.6049 5.63 4.87012 5.63Z" fill="#111453"></path>
            <path d="M4.87012 9H7.98012C8.24533 9 8.49969 8.89463 8.68722 8.70709C8.87476 8.51956 8.98012 8.26522 8.98012 8C8.98012 7.73478 8.87476 7.48044 8.68722 7.29291C8.49969 7.10537 8.24533 7 7.98012 7H4.87012C4.6049 7 4.35055 7.10537 4.16301 7.29291C3.97547 7.48044 3.87012 7.73478 3.87012 8C3.87012 8.26522 3.97547 8.51956 4.16301 8.70709C4.35055 8.89463 4.6049 9 4.87012 9Z" fill="#111453"></path>
            <path d="M4.87012 12.37H7.98012C8.24533 12.37 8.49969 12.2647 8.68722 12.0771C8.87476 11.8896 8.98012 11.6352 8.98012 11.37C8.98012 11.1048 8.87476 10.8504 8.68722 10.6629C8.49969 10.4754 8.24533 10.37 7.98012 10.37H4.87012C4.6049 10.37 4.35055 10.4754 4.16301 10.6629C3.97547 10.8504 3.87012 11.1048 3.87012 11.37C3.87012 11.6352 3.97547 11.8896 4.16301 12.0771C4.35055 12.2647 4.6049 12.37 4.87012 12.37Z" fill="#111453"></path>
            <path d="M15 0H1C0.734784 0 0.480431 0.105371 0.292894 0.292908C0.105358 0.480444 0 0.734784 0 1V15C0 15.2652 0.105358 15.5196 0.292894 15.7071C0.480431 15.8946 0.734784 16 1 16H15C15.2652 16 15.5196 15.8946 15.7071 15.7071C15.8946 15.5196 16 15.2652 16 15V1C16 0.734784 15.8946 0.480444 15.7071 0.292908C15.5196 0.105371 15.2652 0 15 0ZM14 14H2V2H14V14Z" fill="#111453"></path>
        </g>
    </g>
    <defs>
        <clippath id="content-type-table-blocks">
            <rect fill="white" height="16" width="16"></rect>
        </clippath>
        <clippath id="content-type-table-dots">
            <rect fill="white" height="16" width="16"></rect>
        </clippath>
    </defs>
</svg>