<?xml version="1.0" encoding="utf-8"?>
<svg height="16" viewbox="0 0 16 16" width="16" xmlns="http://www.w3.org/2000/svg">
	<g clip-path="url(#content-type-button-clip)">
	    <path d="M12.1399 15C12.0291 14.9988 11.9218 14.9609 11.8349 14.8921C11.7481 14.8233 11.6865 14.7276 11.6599 14.62L10.9999 12.09L9.75989 12.79C9.67721 12.8459 9.57969 12.8758 9.47989 12.8758C9.3801 12.8758 9.28258 12.8459 9.1999 12.79C9.12425 12.7269 9.06813 12.6435 9.03803 12.5497C9.00793 12.4559 9.00512 12.3554 9.02991 12.26L10.6099 6.36002C10.634 6.27419 10.6798 6.196 10.7428 6.13295C10.8059 6.06991 10.8841 6.02413 10.9699 6.00002C11.0552 5.97917 11.1444 5.98115 11.2286 6.00573C11.3129 6.0303 11.3892 6.07662 11.4499 6.14003L15.6799 10.52C15.7483 10.592 15.7942 10.6824 15.812 10.7801C15.8297 10.8778 15.8186 10.9786 15.7799 11.07C15.7413 11.1606 15.6774 11.238 15.5957 11.293C15.5141 11.348 15.4183 11.3783 15.3199 11.38H13.8899L14.5399 13.91C14.5739 14.0386 14.5564 14.1754 14.491 14.2912C14.4256 14.407 14.3176 14.4927 14.1899 14.53L12.2699 15.03L12.1399 15ZM11.3199 10.83C11.3862 10.8197 11.4536 10.8197 11.5199 10.83C11.5905 10.8616 11.6531 10.9085 11.7033 10.9673C11.7534 11.0261 11.7899 11.0954 11.8099 11.17L12.4999 13.84L13.4499 13.59L12.7599 10.92C12.7395 10.8448 12.7371 10.7657 12.7527 10.6894C12.7683 10.613 12.8016 10.5413 12.8499 10.48C12.8959 10.4205 12.9551 10.3725 13.0227 10.3395C13.0904 10.3066 13.1647 10.2896 13.2399 10.29H14.1399L11.3499 7.40003L10.3499 11.29L11.1299 10.86C11.19 10.8355 11.2551 10.8252 11.3199 10.83Z" fill="#111453"></path>
	    <path d="M7.5 11.0699H4C2.93913 11.0699 1.92172 10.6485 1.17157 9.89838C0.421424 9.14823 0 8.13081 0 7.06995V5.06995C0 4.00908 0.421424 2.99166 1.17157 2.24152C1.92172 1.49137 2.93913 1.06995 4 1.06995H12C13.0609 1.06995 14.0783 1.49137 14.8284 2.24152C15.5785 2.99166 16 4.00908 16 5.06995V7.06995C16 7.33516 15.8946 7.58952 15.7071 7.77705C15.5196 7.96459 15.2652 8.06995 15 8.06995C14.7348 8.06995 14.4804 7.96459 14.2929 7.77705C14.1053 7.58952 14 7.33516 14 7.06995V5.06995C14 4.53951 13.7893 4.0308 13.4142 3.65573C13.0391 3.28066 12.5304 3.06995 12 3.06995H4C3.46957 3.06995 2.96086 3.28066 2.58578 3.65573C2.21071 4.0308 2 4.53951 2 5.06995V7.06995C2 7.60038 2.21071 8.10909 2.58578 8.48416C2.96086 8.85923 3.46957 9.06995 4 9.06995H7.5C7.76522 9.06995 8.01956 9.1753 8.20709 9.36284C8.39463 9.55037 8.5 9.80473 8.5 10.0699C8.5 10.3352 8.39463 10.5895 8.20709 10.7771C8.01956 10.9646 7.76522 11.0699 7.5 11.0699Z" fill="#111453"></path>
	</g>
	<defs>
	    <clippath id="content-type-button-clip">
	        <rect fill="white" height="14" transform="translate(0 1)" width="16"></rect>
	    </clippath>
	</defs>
</svg>