<?xml version="1.0" encoding="utf-8"?>
<svg height="16" viewbox="0 0 16 16" width="16" xmlns="http://www.w3.org/2000/svg">
    <g clip-path="url(#content-type-link-first-ring)">
        <g clip-path="url(#content-type-link-second-ring)">
            <path d="M3.82001 15.96C3.31909 15.9615 2.82278 15.8643 2.35948 15.6738C1.89618 15.4834 1.47499 15.2034 1.12001 14.85C0.764327 14.4961 0.482234 14.0754 0.290004 13.612C0.0977738 13.1486 -0.000787676 12.6517 4.74042e-06 12.15C-0.000787676 11.6483 0.0977738 11.1514 0.290004 10.688C0.482234 10.2246 0.764327 9.80381 1.12001 9.44998L2.96001 7.60999C3.05297 7.51626 3.16357 7.44185 3.28543 7.39108C3.40729 7.34031 3.53799 7.31418 3.67 7.31418C3.80202 7.31418 3.93272 7.34031 4.05458 7.39108C4.17644 7.44185 4.28704 7.51626 4.38 7.60999C4.56626 7.79735 4.6708 8.05079 4.6708 8.31497C4.6708 8.57916 4.56626 8.83263 4.38 9.01999L2.53001 10.86C2.18999 11.2032 1.99947 11.6669 2 12.15C1.99997 12.3877 2.04676 12.6231 2.13769 12.8427C2.22863 13.0623 2.36194 13.2619 2.53001 13.43C2.87116 13.7701 3.33326 13.9611 3.81501 13.9611C4.29675 13.9611 4.75885 13.7701 5.10001 13.43L8.35001 10.19C8.69002 9.84679 8.88054 9.38306 8.88 8.89996C8.88004 8.66226 8.83325 8.4269 8.74232 8.20728C8.65138 7.98765 8.51807 7.78807 8.35001 7.61996C8.25628 7.527 8.18188 7.41641 8.13111 7.29456C8.08035 7.1727 8.05421 7.04199 8.05421 6.90997C8.05421 6.77796 8.08035 6.64725 8.13111 6.52539C8.18188 6.40353 8.25628 6.29294 8.35001 6.19998C8.53737 6.01373 8.79082 5.90918 9.05501 5.90918C9.31919 5.90918 9.57264 6.01373 9.76 6.19998C10.1157 6.55381 10.3978 6.97458 10.59 7.43799C10.7822 7.9014 10.8808 8.39826 10.88 8.89996C10.8808 9.40166 10.7822 9.89856 10.59 10.362C10.3978 10.8254 10.1157 11.2461 9.76 11.6L6.52001 14.85C5.80122 15.561 4.83104 15.9599 3.82001 15.96Z" fill="#111453"></path>
            <path d="M6.94988 10.02C6.81827 10.0207 6.68781 9.99547 6.56597 9.94571C6.44413 9.89594 6.33332 9.82263 6.23988 9.72995C5.52335 9.01403 5.12049 8.04283 5.11988 7.02994C5.11909 6.52824 5.21765 6.03134 5.40988 5.56793C5.60211 5.10452 5.8842 4.68379 6.23988 4.32996L9.47988 1.07996C10.2073 0.385522 11.1742 -0.00195312 12.1799 -0.00195312C13.1855 -0.00195312 14.1525 0.385522 14.8799 1.07996C15.2356 1.43379 15.5176 1.85452 15.7099 2.31793C15.9021 2.78134 16.0007 3.27824 15.9999 3.77994C16.0007 4.28164 15.9021 4.77853 15.7099 5.24194C15.5176 5.70535 15.2356 6.12612 14.8799 6.47995L13.0399 8.28995C12.8525 8.4762 12.5991 8.58075 12.3349 8.58075C12.0707 8.58075 11.8172 8.4762 11.6299 8.28995C11.4436 8.10258 11.3391 7.84915 11.3391 7.58496C11.3391 7.32078 11.4436 7.06731 11.6299 6.87994L13.4299 5.06995C13.7699 4.72676 13.9604 4.26304 13.9599 3.77994C13.9599 3.54223 13.9131 3.30684 13.8222 3.08722C13.7313 2.8676 13.5979 2.66804 13.4299 2.49994C13.085 2.16694 12.6243 1.98083 12.1449 1.98083C11.6655 1.98083 11.2048 2.16694 10.8599 2.49994L7.60988 5.73996C7.44062 5.90925 7.30662 6.11042 7.21564 6.33185C7.12467 6.55328 7.07852 6.79055 7.07988 7.02994C7.07984 7.26764 7.12663 7.50303 7.21757 7.72266C7.3085 7.94228 7.44181 8.14184 7.60988 8.30994C7.70361 8.4029 7.778 8.51352 7.82877 8.63538C7.87954 8.75724 7.90568 8.88795 7.90568 9.01996C7.90568 9.15197 7.87954 9.28265 7.82877 9.40451C7.778 9.52637 7.70361 9.63699 7.60988 9.72995C7.43359 9.90531 7.19828 10.0087 6.94988 10.02Z" fill="#111453"></path>
        </g>
    </g>
    <defs>
        <clippath id="content-type-link-first-ring">
            <rect fill="white" height="16" width="16"></rect>
        </clippath>
        <clippath id="content-type-link-second-ring">
            <rect fill="white" height="15.96" width="16"></rect>
        </clippath>
    </defs>
</svg>