<?xml version="1.0" encoding="utf-8"?>
<svg height="15" viewbox="0 0 15 15" width="15" xmlns="http://www.w3.org/2000/svg">
	<g clip-path="url(#affilizz-logo-white)">
	    <path d="M0 15H15V0H0V15ZM8.04844 10.0935C8.04508 10.0144 8.07006 9.9367 8.11875 9.8748C8.13889 9.84725 8.16501 9.82478 8.19508 9.80912C8.22516 9.79345 8.25838 9.78502 8.29219 9.78447H11.1984L8.28281 5.25832C8.20269 5.14106 8.16013 5.00161 8.16094 4.85895V3.66085C8.15758 3.58174 8.18256 3.50406 8.23125 3.44215C8.25139 3.41461 8.2775 3.39213 8.30758 3.37647C8.33766 3.3608 8.37088 3.35237 8.40469 3.35182H13.2328C13.2668 3.3512 13.3005 3.35913 13.3307 3.37489C13.361 3.39065 13.3869 3.41376 13.4062 3.44215C13.4565 3.50375 13.4847 3.58089 13.4859 3.66085V4.89223C13.4872 4.96668 13.4622 5.03914 13.4156 5.09667C13.3974 5.125 13.3723 5.14816 13.3428 5.16396C13.3132 5.17976 13.2802 5.18769 13.2469 5.187H10.4344L13.4531 9.69889C13.493 9.75739 13.5275 9.81945 13.5562 9.88431C13.585 9.96002 13.5978 10.041 13.5938 10.122V11.3296C13.5963 11.4086 13.5714 11.486 13.5234 11.5483C13.5038 11.5764 13.4778 11.5993 13.4476 11.615C13.4174 11.6308 13.3839 11.6389 13.35 11.6387H8.29219C8.25871 11.639 8.22561 11.6315 8.19551 11.6166C8.16541 11.6018 8.13912 11.58 8.11875 11.5531C8.09331 11.5241 8.07395 11.4902 8.06186 11.4535C8.04977 11.4167 8.04521 11.3778 8.04844 11.3391V10.0935ZM1.43437 10.1268C1.43035 10.0458 1.44312 9.96477 1.47187 9.88906C1.50266 9.82527 1.5371 9.76336 1.575 9.70364L4.57969 5.19176H1.76719C1.73517 5.19139 1.70367 5.18347 1.6752 5.16861C1.64672 5.15376 1.62204 5.13238 1.60313 5.10618C1.55721 5.04643 1.53244 4.97274 1.53281 4.89699V3.66085C1.53008 3.58258 1.55317 3.50561 1.59844 3.44215C1.61731 3.41443 1.64251 3.39173 1.67189 3.376C1.70127 3.36028 1.73397 3.35198 1.76719 3.35182H6.59531C6.62991 3.35163 6.66407 3.35971 6.69501 3.37541C6.72596 3.3911 6.75283 3.41397 6.77344 3.44215C6.82005 3.50517 6.84478 3.58208 6.84375 3.66085V4.8542C6.84373 4.99821 6.80129 5.13894 6.72188 5.25832L3.80156 9.78447H6.70312C6.73772 9.78428 6.77188 9.79236 6.80283 9.80805C6.83377 9.82375 6.86064 9.84661 6.88125 9.8748C6.92921 9.9371 6.95409 10.0145 6.95156 10.0935V11.3487C6.9542 11.4262 6.92925 11.5022 6.88125 11.5626C6.85968 11.5894 6.83251 11.6109 6.8017 11.6258C6.77089 11.6406 6.73722 11.6482 6.70312 11.6482H1.67812C1.64432 11.6476 1.61109 11.6392 1.58102 11.6235C1.55094 11.6079 1.52482 11.5854 1.50469 11.5578C1.4545 11.4949 1.42941 11.4152 1.43437 11.3344V10.1268Z" fill="white"></path>
	</g>
	<defs>
	    <clippath id="affilizz-logo-white">
	        <rect fill="white" height="15" width="15"></rect>
	    </clippath>
	</defs>
</svg>