<?xml version="1.0" encoding="UTF-8"?>
<svg height="12" viewbox="0 0 12 12" width="12" xmlns="http://www.w3.org/2000/svg">
    <g clip-path="url(#icon-swap-refresh-arrows)">
        <path d="M1.24987 3.86C1.48987 4 1.78987 3.92 1.92987 3.68C2.78987 2.23 4.30987 1.35 5.99987 1.35C7.36987 1.35 8.61987 1.93 9.49987 2.93H7.51987C7.23987 2.93 7.01987 3.15 7.01987 3.43C7.01987 3.71 7.23987 3.93 7.51987 3.93H10.4899C10.5699 3.93 10.6499 3.9 10.7199 3.87H10.7399C10.7599 3.86 10.7699 3.84 10.7799 3.83C10.8099 3.81 10.8299 3.79 10.8599 3.76C10.8799 3.74 10.8999 3.71 10.9099 3.68C10.9299 3.65 10.9399 3.63 10.9499 3.59C10.9599 3.56 10.9699 3.52 10.9699 3.49C10.9699 3.47 10.9799 3.45 10.9799 3.43V0.5C10.9799 0.22 10.7599 0 10.4799 0C10.1999 0 9.97987 0.22 9.97987 0.5V1.99C8.93987 0.96 7.49987 0.35 5.99987 0.35C3.98987 0.35 2.09987 1.44 1.06987 3.18C0.929865 3.42 1.00987 3.72 1.24987 3.86Z" fill="white"/>
        <path d="M10.7498 8.13995C10.5098 7.99995 10.2098 8.07995 10.0698 8.31995C9.20977 9.77995 7.68977 10.6499 5.99977 10.6499C4.62977 10.6499 3.37977 10.0699 2.48977 9.06995H4.46977C4.74977 9.06995 4.96977 8.84995 4.96977 8.56995C4.96977 8.28995 4.74977 8.06995 4.46977 8.06995H1.49977C1.49977 8.06995 1.47977 8.06995 1.46977 8.06995C1.43977 8.06995 1.39977 8.07995 1.36977 8.08995C1.33977 8.08995 1.30977 8.10995 1.27977 8.11995C1.27977 8.11995 1.25977 8.11995 1.24977 8.12995C1.22977 8.13995 1.21977 8.15995 1.20977 8.16995C1.17977 8.18995 1.15977 8.20995 1.12977 8.23995C1.10977 8.25995 1.08977 8.28995 1.07977 8.31995C1.05977 8.34995 1.04977 8.37995 1.03977 8.40995C1.02977 8.43995 1.01977 8.46995 1.01977 8.50995C1.01977 8.52995 1.00977 8.54995 1.00977 8.56995V11.4999C1.00977 11.7799 1.22977 11.9999 1.50977 11.9999C1.78977 11.9999 2.00977 11.7799 2.00977 11.4999V10.0099C3.06977 11.0399 4.49977 11.6499 6.00977 11.6499C8.01977 11.6499 9.90977 10.5699 10.9398 8.81995C11.0798 8.57995 10.9998 8.27995 10.7598 8.13995H10.7498Z" fill="white"/>
    </g>
    <defs>
        <clippath id="icon-swap-refresh-arrows">
            <rect fill="white" height="12" transform="translate(1)" width="10"/>
        </clippath>
    </defs>
</svg>