<?xml version="1.0" encoding="utf-8"?>
<svg width="8" height="12" viewBox="0 0 8 12" fill="none" xmlns="http://www.w3.org/2000/svg">
	<path d="M1.00001 12C0.796428 11.998 0.598307 11.9339 0.432134 11.8163C0.265961 11.6987 0.139648 11.5331 0.0700736 11.3418C0.000499211 11.1505 -0.0090176 10.9425 0.0427909 10.7456C0.0945994 10.5487 0.205255 10.3723 0.359991 10.24L5.44001 6.00002L0.359991 1.77002C0.248551 1.68968 0.154878 1.58723 0.0847831 1.46908C0.0146885 1.35092 -0.0303271 1.21959 -0.0474191 1.08327C-0.064511 0.946958 -0.0532745 0.808583 -0.0145211 0.676779C0.0242323 0.544976 0.0897083 0.422571 0.177862 0.3172C0.266015 0.211829 0.374916 0.125753 0.497808 0.0643394C0.6207 0.00292631 0.754964 -0.032506 0.892156 -0.0397475C1.02935 -0.0469889 1.16656 -0.0258842 1.29523 0.0222504C1.42391 0.070385 1.54126 0.144517 1.64002 0.240022L7.64002 5.24002C7.75152 5.33389 7.84116 5.45099 7.90265 5.58314C7.96414 5.71528 7.99598 5.85927 7.99598 6.00502C7.99598 6.15077 7.96414 6.29476 7.90265 6.4269C7.84116 6.55905 7.75152 6.67615 7.64002 6.77002L1.64002 11.77C1.46011 11.9191 1.23366 12.0005 1.00001 12Z" fill="#fff"></path>
</svg>
