<?xml version="1.0" encoding="utf-8"?>
<svg height="12" viewbox="0 0 8 12" width="8" xmlns="http://www.w3.org/2000/svg">
	<path d="M6.99988 12C6.76623 12.0005 6.53984 11.9191 6.35992 11.77L0.359924 6.77C0.248426 6.67613 0.158779 6.55903 0.09729 6.42688C0.0358007 6.29474 0.00390625 6.15075 0.00390625 6.005C0.00390625 5.85925 0.0358007 5.71526 0.09729 5.58312C0.158779 5.45097 0.248426 5.33387 0.359924 5.24L6.35992 0.24C6.45868 0.144495 6.57604 0.0703631 6.70471 0.0222285C6.83339 -0.0259061 6.9706 -0.0470109 7.10779 -0.0397694C7.24498 -0.032528 7.37918 0.00290437 7.50208 0.0643175C7.62497 0.125731 7.73393 0.211807 7.82208 0.317178C7.91024 0.422549 7.97571 0.544954 8.01447 0.676757C8.05322 0.808561 8.06439 0.946936 8.0473 1.08325C8.03021 1.21957 7.98519 1.3509 7.9151 1.46905C7.84501 1.58721 7.75133 1.68966 7.63989 1.77L2.55988 6L7.63989 10.24C7.79463 10.3723 7.90528 10.5487 7.95709 10.7456C8.0089 10.9425 7.99938 11.1505 7.92981 11.3418C7.86024 11.5331 7.73392 11.6987 7.56775 11.8163C7.40158 11.9339 7.20345 11.998 6.99988 12Z" fill="#111453"></path>
</svg>