<?xml version="1.0" encoding="utf-8"?>
<svg width="16" height="16" viewBox="0 0 16 16" fill="none" xmlns="http://www.w3.org/2000/svg">
<path d="M8 0C6.41775 0 4.87105 0.469192 3.55545 1.34824C2.23986 2.22729 1.21447 3.47672 0.608967 4.93853C0.00346625 6.40034 -0.15496 8.00887 0.153721 9.56072C0.462403 11.1126 1.22434 12.538 2.34316 13.6569C3.46198 14.7757 4.88744 15.5376 6.43929 15.8463C7.99114 16.155 9.59967 15.9965 11.0615 15.391C12.5233 14.7855 13.7727 13.7602 14.6518 12.4446C15.5308 11.129 16 9.58225 16 8C16 5.87827 15.1572 3.84344 13.6569 2.34315C12.1566 0.842856 10.1217 0 8 0ZM8 14C6.81332 14 5.65328 13.6481 4.66658 12.9888C3.67989 12.3295 2.91086 11.3925 2.45673 10.2961C2.0026 9.19974 1.88379 7.99335 2.1153 6.82946C2.34681 5.66557 2.91826 4.59647 3.75737 3.75736C4.59649 2.91824 5.66559 2.3468 6.82947 2.11529C7.99336 1.88378 9.19976 2.0026 10.2961 2.45672C11.3925 2.91085 12.3295 3.67989 12.9888 4.66658C13.6481 5.65328 14 6.81331 14 8C14 9.5913 13.3679 11.1174 12.2427 12.2426C11.1174 13.3679 9.5913 14 8 14Z" fill="#404489"/>
<path d="M9 7H7V12H9V7Z" fill="#404489"/>
<path d="M9 4H7V6H9V4Z" fill="#404489"/>
</svg>
