<?xml version="1.0" encoding="utf-8"?>
<svg height="29" viewbox="0 0 32 29" width="32" xmlns="http://www.w3.org/2000/svg">
	<g clip-path="url(#media-pictogram-clip)">
	    <path d="M8.79206 3.39852H8.90407C9.18153 3.38882 9.45226 3.31229 9.69228 3.1757C9.9323 3.03911 10.1342 2.84667 10.2801 2.61545L10.3441 2.50581C10.4709 2.26315 10.5393 1.99528 10.5441 1.72274C10.5417 1.4499 10.4731 1.18151 10.3441 0.939671C10.2072 0.664702 9.99464 0.432583 9.73037 0.26935C9.46609 0.106117 9.16055 0.0182463 8.84807 0.0156555C8.39256 0.0218438 7.95798 0.203861 7.63886 0.522088C7.31975 0.840316 7.14191 1.26899 7.14406 1.7149C7.1458 2.03313 7.23716 2.34474 7.40808 2.61545C7.55575 2.84681 7.75914 3.03918 8.00043 3.1757C8.24173 3.31222 8.51354 3.38873 8.79206 3.39852Z" fill="#111453"></path>
	    <path d="M3.12817 13.2026C2.98229 12.9713 2.7804 12.7789 2.54038 12.6423C2.30036 12.5057 2.02963 12.4292 1.75217 12.4195H1.69617C1.24138 12.4257 0.807611 12.608 0.489769 12.9264C0.171927 13.2449 -0.00410567 13.6736 0.000169293 14.1187C-0.0030018 14.3395 0.0384045 14.5586 0.12202 14.7636C0.205635 14.9686 0.329806 15.1555 0.487401 15.3134C0.644996 15.4713 0.832918 15.5971 1.04035 15.6837C1.24779 15.7703 1.47066 15.8159 1.69617 15.818H1.75217C2.02963 15.8083 2.30036 15.7318 2.54038 15.5952C2.7804 15.4586 2.98229 15.2661 3.12817 15.0349L3.19216 14.9253C3.32241 14.6839 3.39103 14.4152 3.39216 14.1422C3.39367 13.8689 3.32489 13.5996 3.19216 13.3591C3.17616 13.305 3.15474 13.2526 3.12817 13.2026Z" fill="#111453"></path>
	    <path d="M23.2083 24.7998H23.0882C22.8108 24.8095 22.54 24.886 22.3 25.0226C22.06 25.1592 21.8581 25.3516 21.7122 25.5829C21.7122 25.5829 21.6722 25.6611 21.6482 25.6925C21.5214 25.9351 21.453 26.203 21.4482 26.4755C21.4509 26.7483 21.5194 27.0167 21.6482 27.2586C21.787 27.5315 22.0002 27.7616 22.2642 27.9233C22.5282 28.085 22.8328 28.1721 23.1442 28.1748C23.3701 28.1728 23.5934 28.1272 23.8012 28.0407C24.0091 27.9542 24.1976 27.8284 24.3558 27.6706C24.514 27.5128 24.639 27.3261 24.7235 27.1211C24.808 26.916 24.8504 26.6966 24.8482 26.4755C24.8454 26.1599 24.7541 25.8511 24.5843 25.5829C24.4384 25.3516 24.2365 25.1592 23.9965 25.0226C23.7564 24.886 23.4857 24.8095 23.2083 24.7998Z" fill="#111453"></path>
	    <path d="M21.7122 2.61545C21.8581 2.84667 22.06 3.03911 22.3 3.1757C22.54 3.31229 22.8108 3.38882 23.0882 3.39852H23.2083C23.4857 3.38882 23.7564 3.31229 23.9965 3.1757C24.2365 3.03911 24.4384 2.84667 24.5843 2.61545C24.7552 2.34474 24.8465 2.03313 24.8482 1.7149C24.8504 1.49381 24.808 1.27449 24.7235 1.06943C24.639 0.864379 24.514 0.677635 24.3558 0.519842C24.1976 0.362049 24.0091 0.236321 23.8012 0.149815C23.5934 0.0633098 23.3701 0.0177027 23.1442 0.0156555C22.832 0.0191409 22.5268 0.107365 22.2627 0.270497C21.9986 0.433629 21.7859 0.665266 21.6482 0.939671C21.5192 1.18151 21.4506 1.4499 21.4482 1.72274C21.453 1.99528 21.5214 2.26315 21.6482 2.50581C21.6482 2.50581 21.6882 2.56063 21.7122 2.61545Z" fill="#111453"></path>
	    <path d="M30.2961 12.396H30.2401C29.9626 12.4057 29.6919 12.4822 29.4519 12.6188C29.2119 12.7554 29.01 12.9478 28.8641 13.179L28.8001 13.2965C28.671 13.5384 28.6025 13.8067 28.6001 14.0796C28.6048 14.3521 28.6732 14.62 28.8001 14.8627C28.8001 14.8627 28.8401 14.9331 28.8641 14.9723C29.01 15.2035 29.2119 15.3959 29.4519 15.5325C29.6919 15.6691 29.9626 15.7457 30.2401 15.7554H30.2961C30.522 15.7533 30.7452 15.7077 30.9531 15.6212C31.161 15.5347 31.3494 15.409 31.5077 15.2512C31.6659 15.0934 31.7908 14.9066 31.8753 14.7016C31.9598 14.4965 32.0022 14.2772 32.0001 14.0561C31.9938 13.6163 31.8121 13.1964 31.4936 12.8862C31.1752 12.576 30.7454 12.4 30.2961 12.396Z" fill="#111453"></path>
	    <path d="M27.1042 13.32H19.0562C18.9203 12.7605 18.6297 12.2485 18.2162 11.84L22.2642 4.83156C21.7408 4.68805 21.2623 4.41889 20.8722 4.04849L16.8722 11.0491C16.6129 10.9706 16.3436 10.9284 16.0722 10.9238C15.7875 10.9254 15.5045 10.9676 15.2322 11.0491L11.1922 4.04849C10.806 4.41992 10.3298 4.68935 9.8082 4.83156L13.8482 11.84C13.4407 12.2529 13.1511 12.7632 13.0082 13.32H4.88818C4.95588 13.5758 4.99082 13.8388 4.99219 14.1031C4.98947 14.3672 4.95455 14.6301 4.88818 14.8861H12.9362C13.0811 15.4398 13.3706 15.9472 13.7762 16.3583L9.73618 23.4059L9.3282 24.1029L8.9042 24.839H8.79219C8.51366 24.8487 8.24185 24.9252 8.00056 25.0618C7.75927 25.1983 7.55588 25.3907 7.4082 25.622C7.23832 25.8903 7.14698 26.1991 7.14419 26.5147C7.14208 26.7358 7.18448 26.9551 7.26897 27.1602C7.35346 27.3653 7.47841 27.552 7.63665 27.7098C7.79488 27.8676 7.98331 27.9934 8.19119 28.0799C8.39907 28.1664 8.62232 28.2119 8.84819 28.214C9.16003 28.213 9.46538 28.1267 9.72974 27.9648C9.99409 27.8029 10.2069 27.5719 10.3442 27.2978C10.473 27.0559 10.5415 26.7875 10.5442 26.5147C10.5395 26.2422 10.4711 25.9743 10.3442 25.7317L10.2802 25.622L10.7122 24.839L11.1202 24.1263L15.1602 17.1257C15.4325 17.2073 15.7155 17.2495 16.0002 17.251C16.2712 17.2426 16.54 17.2005 16.8002 17.1257L20.8002 24.1263C21.1903 23.7559 21.6688 23.4868 22.1922 23.3433L18.1442 16.2956C18.5564 15.8893 18.8469 15.3802 18.9842 14.8235H27.0322C26.9697 14.5668 26.9348 14.3043 26.9282 14.0405C26.9616 13.7951 27.0206 13.5536 27.1042 13.32Z" fill="#111453"></path>
	</g>
	<defs>
	    <clippath id="media-pictogram-clip">
	        <rect fill="white" height="28.1905" width="32"></rect>
	    </clippath>
	</defs>
</svg>