<?xml version="1.0" encoding="utf-8"?>
<svg height="80" viewbox="0 0 28 80" width="28" xmlns="http://www.w3.org/2000/svg">
	<g clip-path="url(#wordpress-link-arrows)">
	    <path d="M13.9998 0.839996C15.7768 0.839996 17.5001 1.18775 19.1221 1.87403C19.9016 2.20373 20.6538 2.61197 21.3573 3.0874C22.0545 3.55822 22.7097 4.09918 23.3057 4.69474C23.9012 5.29029 24.4422 5.94591 24.913 6.64311C25.3885 7.3466 25.7963 8.0984 26.1264 8.87834C26.8122 10.5004 27.1604 12.2236 27.1604 14.0006C27.1604 15.7776 26.8127 17.5009 26.1264 19.1229C25.7967 19.9024 25.3885 20.6547 24.913 21.3582C24.4422 22.0554 23.9012 22.7105 23.3057 23.3065C22.7101 23.9021 22.0545 24.443 21.3573 24.9139C20.6538 25.3893 19.902 25.7971 19.1221 26.1272C17.5001 26.8131 15.7768 27.1613 13.9998 27.1613C12.2228 27.1613 10.4995 26.8135 8.8775 26.1272C8.09798 25.7975 7.34576 25.3893 6.64227 24.9139C5.94507 24.443 5.28987 23.9021 4.6939 23.3065C4.09834 22.711 3.55738 22.0554 3.08656 21.3582C2.61113 20.6547 2.20331 19.9029 1.87319 19.1229C1.18733 17.5009 0.839156 15.7776 0.839156 14.0006C0.839156 12.2236 1.18691 10.5004 1.87319 8.87834C2.20289 8.09882 2.61113 7.3466 3.08656 6.64311C3.55738 5.94591 4.09834 5.29071 4.6939 4.69474C5.28945 4.09918 5.94507 3.55822 6.64227 3.0874C7.34576 2.61197 8.09756 2.20415 8.8775 1.87403C10.4995 1.18817 12.2228 0.839996 13.9998 0.839996M13.9998 0C6.26805 0 0 6.26805 0 13.9998C0 21.7315 6.26805 27.9996 13.9998 27.9996C21.7315 27.9996 27.9996 21.7315 27.9996 13.9998C27.9996 6.26805 21.732 0 13.9998 0V0Z" fill="#7A7DB0"></path>
	    <path d="M2.3335 13.9993C2.3335 18.6172 5.01686 22.608 8.90898 24.4989L3.34359 9.25169C2.69637 10.7024 2.3335 12.308 2.3335 13.9993ZM21.876 13.4109C21.876 11.9687 21.3581 10.9703 20.9142 10.1933C20.3228 9.23195 19.768 8.41841 19.768 7.45704C19.768 6.38478 20.5811 5.38645 21.7273 5.38645C21.779 5.38645 21.8281 5.39275 21.8785 5.39569C19.8029 3.49394 17.0372 2.33264 14.0002 2.33264C9.92412 2.33264 6.3386 4.42423 4.25247 7.59102C4.52631 7.59984 4.7846 7.6053 5.00342 7.6053C6.22352 7.6053 8.11267 7.45704 8.11267 7.45704C8.7414 7.42008 8.81574 8.34407 8.18743 8.41841C8.18743 8.41841 7.55533 8.49233 6.85225 8.52929L11.1005 21.1662L13.6541 13.5092L11.8368 8.52929C11.2081 8.49233 10.6133 8.41841 10.6133 8.41841C9.9846 8.38145 10.0581 7.42008 10.6873 7.45704C10.6873 7.45704 12.6134 7.6053 13.76 7.6053C14.9801 7.6053 16.8696 7.45704 16.8696 7.45704C17.4984 7.42008 17.5727 8.34407 16.944 8.41841C16.944 8.41841 16.311 8.49233 15.6088 8.52929L19.8251 21.07L21.0289 17.2564C21.5635 15.5899 21.8768 14.4088 21.8768 13.4105L21.876 13.4109ZM14.2052 15.0199L10.7041 25.191C11.7494 25.4985 12.8549 25.6665 14.0002 25.6665C15.3589 25.6665 16.6621 25.4321 17.8747 25.005C17.8436 24.955 17.8146 24.9021 17.7911 24.8441L14.2052 15.0199ZM24.2381 8.40287C24.288 8.77457 24.3166 9.17315 24.3166 9.60239C24.3166 10.7859 24.0948 12.1165 23.4292 13.7809L19.8659 24.0835C23.3342 22.0612 25.6669 18.3039 25.6669 13.9998C25.6669 11.9716 25.1486 10.0644 24.2381 8.40287V8.40287Z" fill="#7A7DB0"></path>
	</g>
	<g clip-path="url(#wordpress-link-affilizz)">
	    <path d="M0 80H28V52H0V80ZM15.0238 70.8412C15.0175 70.6935 15.0641 70.5485 15.155 70.433C15.1926 70.3815 15.2413 70.3396 15.2975 70.3104C15.3536 70.2811 15.4156 70.2654 15.4788 70.2643H20.9038L15.4613 61.8155C15.3117 61.5967 15.2322 61.3363 15.2337 61.07V58.8336C15.2275 58.6859 15.2741 58.5409 15.365 58.4254C15.4026 58.3739 15.4513 58.332 15.5075 58.3027C15.5636 58.2735 15.6256 58.2578 15.6888 58.2567H24.7012C24.7647 58.2556 24.8275 58.2704 24.884 58.2998C24.9405 58.3292 24.9889 58.3723 25.025 58.4254C25.1189 58.5403 25.1714 58.6843 25.1738 58.8336V61.1322C25.176 61.2711 25.1295 61.4064 25.0425 61.5138C25.0084 61.5667 24.9616 61.6099 24.9065 61.6394C24.8514 61.6689 24.7898 61.6837 24.7275 61.6824H19.4775L25.1125 70.1046C25.1869 70.2138 25.2513 70.3296 25.305 70.4507C25.3587 70.592 25.3825 70.7432 25.375 70.8944V73.1486C25.3797 73.2961 25.3333 73.4406 25.2438 73.5569C25.2071 73.6093 25.1586 73.6521 25.1022 73.6814C25.0459 73.7108 24.9834 73.7259 24.92 73.7255H15.4788C15.4163 73.7262 15.3545 73.7121 15.2983 73.6844C15.2421 73.6567 15.193 73.6161 15.155 73.5658C15.1075 73.5117 15.0714 73.4485 15.0488 73.3798C15.0262 73.3111 15.0177 73.2385 15.0238 73.1664V70.8412ZM2.6775 70.9033C2.66998 70.7521 2.69383 70.6009 2.7475 70.4596C2.80497 70.3405 2.86925 70.2249 2.94 70.1135L8.54875 61.6913H3.29875C3.23898 61.6906 3.18019 61.6758 3.12703 61.6481C3.07388 61.6204 3.02782 61.5804 2.9925 61.5315C2.90679 61.42 2.86056 61.2825 2.86125 61.141V58.8336C2.85614 58.6875 2.89925 58.5438 2.98375 58.4254C3.01898 58.3736 3.06602 58.3312 3.12087 58.3019C3.17571 58.2725 3.23674 58.257 3.29875 58.2567H12.3113C12.3758 58.2564 12.4396 58.2715 12.4974 58.3008C12.5551 58.3301 12.6053 58.3727 12.6438 58.4254C12.7308 58.543 12.7769 58.6865 12.775 58.8336V61.0612C12.775 61.33 12.6957 61.5927 12.5475 61.8155L7.09625 70.2643H12.5125C12.5771 70.264 12.6408 70.2791 12.6986 70.3084C12.7564 70.3377 12.8065 70.3803 12.845 70.433C12.9345 70.5493 12.981 70.6937 12.9763 70.8412V73.1841C12.9812 73.3289 12.9346 73.4707 12.845 73.5835C12.8047 73.6335 12.754 73.6738 12.6965 73.7014C12.639 73.729 12.5761 73.7433 12.5125 73.7433H3.1325C3.0694 73.7422 3.00737 73.7265 2.95123 73.6973C2.89509 73.668 2.84634 73.6261 2.80875 73.5746C2.71506 73.4572 2.66823 73.3083 2.6775 73.1575V70.9033Z" fill="#1DD6A1"></path>
	</g>
	<g clip-path="url(#wordpress-link-wordpress)">
	    <g clip-path="url(#wordpress-link-wordpress-inner)">
	        <path d="M10.2274 41.5C10.3992 41.4993 10.566 41.5575 10.6999 41.665L13.9774 44.29L17.2624 41.665C17.4178 41.5423 17.6155 41.4861 17.8122 41.5086C18.0088 41.5311 18.1887 41.6304 18.3124 41.785C18.4359 41.9395 18.4934 42.1365 18.4723 42.3331C18.4512 42.5298 18.3533 42.7102 18.1999 42.835L14.4499 45.835C14.3169 45.9415 14.1516 45.9995 13.9812 45.9995C13.8108 45.9995 13.6454 45.9415 13.5124 45.835L9.76242 42.835C9.60789 42.7112 9.50855 42.5314 9.48607 42.3347C9.46359 42.138 9.51979 41.9404 9.64242 41.785C9.71227 41.6966 9.80113 41.6251 9.9024 41.5757C10.0037 41.5264 10.1148 41.5005 10.2274 41.5V41.5Z" fill="#7A7DB0"></path>
	        <path d="M13.9774 33.9999C14.1492 33.9992 14.316 34.0574 14.4499 34.1649L18.1999 37.1649C18.3533 37.2897 18.4512 37.4701 18.4723 37.6667C18.4934 37.8634 18.4359 38.0604 18.3124 38.2149C18.1887 38.3694 18.0088 38.4688 17.8122 38.4913C17.6155 38.5137 17.4178 38.4575 17.2624 38.3349L13.9774 35.7099L10.6999 38.3349C10.6227 38.3968 10.5341 38.4428 10.4391 38.4703C10.344 38.4977 10.2445 38.5061 10.1462 38.495C10.0479 38.4838 9.95279 38.4533 9.86633 38.4053C9.77987 38.3572 9.70378 38.2925 9.64242 38.2149C9.51979 38.0595 9.46359 37.8619 9.48607 37.6652C9.50855 37.4685 9.60789 37.2886 9.76242 37.1649L13.5124 34.1649C13.6444 34.059 13.8083 34.0009 13.9774 33.9999V33.9999Z" fill="#7A7DB0"></path>
	    </g>
	</g>
	<defs>
	    <clippath id="wordpress-link-arrows">
	        <rect fill="white" height="28" width="28"></rect>
	    </clippath>
	    <clippath id="wordpress-link-affilizz">
	        <rect fill="white" height="28" transform="translate(0 52)" width="28"></rect>
	    </clippath>
	    <clippath id="wordpress-link-wordpress">
	        <rect fill="white" height="12" transform="translate(20 46) rotate(-180)" width="12"></rect>
	    </clippath>
	    <clippath id="wordpress-link-wordpress-inner">
	        <rect fill="white" height="12" transform="translate(18.5 46) rotate(-180)" width="9"></rect>
	    </clippath>
	</defs>
</svg>