<svg xmlns="http://www.w3.org/2000/svg" width="16" height="17" fill="none">
  <mask id="a" fill="#fff">
    <path d="M7.104 15.872c-.164.805-.957 1.337-1.721 1.036A8.499 8.499 0 1 1 15.502 4.18c.465.676.126 1.569-.622 1.91-.747.34-1.617-.008-2.144-.638a5.523 5.523 0 0 0-8.56.109 5.525 5.525 0 0 0 1.823 8.365c.733.372 1.268 1.14 1.105 1.945Z"/>
  </mask>
  <path stroke="#7AF4D1" stroke-width="8" d="M7.104 15.872c-.164.805-.957 1.337-1.721 1.036A8.499 8.499 0 1 1 15.502 4.18c.465.676.126 1.569-.622 1.91-.747.34-1.617-.008-2.144-.638a5.523 5.523 0 0 0-8.56.109 5.525 5.525 0 0 0 1.823 8.365c.733.372 1.268 1.14 1.105 1.945Z" mask="url(#a)"/>
</svg>