<?xml version="1.0" encoding="utf-8"?>
<svg width="40" height="40" fill="none" xmlns="http://www.w3.org/2000/svg">
    <path d="M34.74.02h-.45a5.51 5.51 0 0 0-5.3 5.49 5.5 5.5 0 0 0 4 5.29v27.69a1.5 1.5 0 1 0 3 0v-27.7a5.5 5.5 0 0 0 4-5.28A5.51 5.51 0 0 0 34.74.02Zm1.27 7.47a2.54 2.54 0 0 1-1.52.52 2.44 2.44 0 0 1-1.48-.5 2.48 2.48 0 0 1-1-2 2.48 2.48 0 0 1 1-2 2.44 2.44 0 0 1 1.48-.5 2.54 2.54 0 0 1 2.52 2.52 2.52 2.52 0 0 1-1 1.96ZM7 11.24V1.5a1.5 1.5 0 1 0-3 0v9.74a5.49 5.49 0 0 0 0 10.57v16.68a1.5 1.5 0 0 0 3 0V21.81a5.51 5.51 0 0 0 4-5.29 5.5 5.5 0 0 0-4-5.28Zm0 7.27c-.43.33-.958.51-1.5.51a2.45 2.45 0 0 1-1.5-.51 2.47 2.47 0 0 1-1-2 2.45 2.45 0 0 1 1-2 2.46 2.46 0 0 1 1.5-.52 2.48 2.48 0 0 1 1.5.52 2.48 2.48 0 0 1 1 2 2.5 2.5 0 0 1-1 2ZM21.5 22.85V1.51a1.5 1.5 0 1 0-3 0v21.34a5.5 5.5 0 0 0-4 5.28 5.52 5.52 0 0 0 4 5.29v5.08a1.5 1.5 0 1 0 3 0v-5.08a5.52 5.52 0 0 0 4-5.29 5.5 5.5 0 0 0-4-5.28Zm0 7.27c-.43.33-.958.51-1.5.51a2.43 2.43 0 0 1-1.5-.51 2.48 2.48 0 0 1-1-2 2.46 2.46 0 0 1 1-2 2.43 2.43 0 0 1 1.5-.52 2.48 2.48 0 0 1 1.5.52 2.48 2.48 0 0 1 1 2 2.5 2.5 0 0 1-1 2Z" fill="#111453"/>
</svg>
