<?xml version="1.0" encoding="utf-8"?>
<svg height="13" viewbox="0 0 13 13" width="13" xmlns="http://www.w3.org/2000/svg">
    <g clip-path="url(#icon-external-link-ring)">
        <path d="M12.4702 8.85999C12.3376 8.85999 12.2104 8.91264 12.1166 9.00641C12.0229 9.10018 11.9702 9.22738 11.9702 9.35999V11.72C11.9716 11.7571 11.9654 11.7941 11.9518 11.8287C11.9382 11.8633 11.9176 11.8948 11.8913 11.9211C11.865 11.9474 11.8336 11.9679 11.799 11.9815C11.7644 11.9951 11.7273 12.0014 11.6902 12H2.26019C2.22259 12.0013 2.1851 11.9951 2.14996 11.9816C2.11483 11.9682 2.08279 11.9477 2.05573 11.9216C2.02866 11.8954 2.00712 11.8641 1.99243 11.8295C1.97774 11.7948 1.97019 11.7576 1.97021 11.72V2.28998C1.97021 2.21307 2.00079 2.13929 2.05518 2.0849C2.10956 2.03051 2.18328 2 2.26019 2H4.62024C4.75285 2 4.87999 1.94728 4.97375 1.85352C5.06752 1.75975 5.12024 1.63261 5.12024 1.5C5.11768 1.36819 5.06417 1.24245 4.97095 1.14923C4.87773 1.05601 4.75205 1.00256 4.62024 1H2.26019C1.91806 1 1.58994 1.13589 1.34802 1.37781C1.1061 1.61973 0.970215 1.94785 0.970215 2.28998V11.72C0.97021 11.8889 1.00365 12.0562 1.0686 12.2122C1.13355 12.3681 1.22871 12.5096 1.34863 12.6286C1.46855 12.7476 1.61088 12.8417 1.76733 12.9054C1.92379 12.9691 2.09126 13.0013 2.26019 13H11.6902C12.0297 13 12.3553 12.8651 12.5953 12.6251C12.8354 12.385 12.9702 12.0594 12.9702 11.72V9.35999C12.9702 9.22738 12.9176 9.10018 12.8238 9.00641C12.73 8.91264 12.6028 8.85999 12.4702 8.85999Z" fill="#404489"></path>
        <path d="M11.7202 1H7.79022C7.65761 1 7.53041 1.05266 7.43665 1.14642C7.34288 1.24019 7.29022 1.36739 7.29022 1.5C7.29022 1.63261 7.34288 1.75975 7.43665 1.85352C7.53041 1.94728 7.65761 2 7.79022 2H11.3002L6.65021 6.64996C6.55796 6.74511 6.50635 6.87242 6.50635 7.00494C6.50635 7.13747 6.55796 7.26484 6.65021 7.35999C6.74627 7.44718 6.87055 7.49689 7.00024 7.5C7.1334 7.49932 7.2616 7.44944 7.36023 7.35999L12.0002 2.70996V6.21997C12.0028 6.35178 12.0563 6.47746 12.1495 6.57068C12.2427 6.6639 12.3684 6.71741 12.5002 6.71997C12.6329 6.71997 12.76 6.66732 12.8538 6.57355C12.9475 6.47978 13.0002 6.35258 13.0002 6.21997V2.28998C13.0016 2.12105 12.9694 1.95351 12.9056 1.79706C12.8419 1.64061 12.7478 1.49834 12.6288 1.37842C12.5099 1.2585 12.3683 1.16328 12.2123 1.09833C12.0564 1.03338 11.8892 0.999995 11.7202 1Z" fill="#404489"></path>
    </g>
    <defs>
        <clippath id="icon-external-link-ring">
            <rect fill="white" height="12" transform="translate(1 1)" width="12"></rect>
        </clippath>
    </defs>
</svg>