<svg width="14" height="18" fill="none" xmlns="http://www.w3.org/2000/svg">
    <path d="M13.03.01a1 1 0 0 0-1 1v1.72A7.34 7.34 0 0 0 6.96.57 7.86 7.86 0 0 0 .07 5.24a1 1 0 0 0 .42 1.34 1 1 0 0 0 1.3-.43 5.88 5.88 0 0 1 5.17-3.58 5.47 5.47 0 0 1 4.23 2.12H9.01a1 1 0 0 0 0 2h4a.8.8 0 0 0 .34-.07h.06s.07-.06.11-.08c.081-.05.155-.11.22-.18a.78.78 0 0 0 .1-.15.7.7 0 0 0 .09-.2c.01-.07.01-.14 0-.21a.575.575 0 0 0 0-.14V1.01a1 1 0 0 0-.9-1ZM13.47 11.42a1 1 0 0 0-1.3.44A5.88 5.88 0 0 1 7 15.44a5.51 5.51 0 0 1-4.26-2.13h2.18a1 1 0 1 0 0-2h-4a.582.582 0 0 0-.19 0 .594.594 0 0 0-.19 0 .879.879 0 0 0-.11.09l-.16.13a.861.861 0 0 0-.1.16.68.68 0 0 0-.09.17 1.18 1.18 0 0 0 0 .2.7.7 0 0 0 0 .14v4.81a1 1 0 1 0 2 0v-1.74a7.28 7.28 0 0 0 5.06 2.17 7.88 7.88 0 0 0 6.9-4.67.999.999 0 0 0-.57-1.35Z" fill="#111453"/>
</svg>
