<svg xmlns="http://www.w3.org/2000/svg" width="16" height="16">
  <g clip-path="url(#a)">
    <g fill="#111453" clip-path="url(#b)">
      <path d="M8 5.5a2.5 2.5 0 1 0 0 5 2.5 2.5 0 0 0 0-5Zm0 4a1.5 1.5 0 1 1 0-3 1.5 1.5 0 0 1 0 3Z"/>
      <path d="M15.14 8.9a1.189 1.189 0 0 1-.41-.9 1.19 1.19 0 0 1 .41-.91l.36-.32a1.47 1.47 0 0 0 .28-1.86l-1.11-1.84a1.56 1.56 0 0 0-1.78-.68l-.47.13a1.38 1.38 0 0 1-1.09-.13 1.21 1.21 0 0 1-.6-.78l-.11-.45A1.54 1.54 0 0 0 9.11 0H6.89a1.52 1.52 0 0 0-1.51 1.16l-.12.45a1.21 1.21 0 0 1-.6.78 1.38 1.38 0 0 1-1.09.13l-.47-.13a1.57 1.57 0 0 0-1.78.68L.21 4.91A1.46 1.46 0 0 0 .5 6.77l.35.32a1.19 1.19 0 0 1 .41.91 1.19 1.19 0 0 1-.41.9l-.35.32a1.47 1.47 0 0 0-.29 1.87l1.11 1.84a1.59 1.59 0 0 0 1.78.68l.47-.14a1.38 1.38 0 0 1 1.47.46c.102.133.177.287.22.45l.11.46A1.55 1.55 0 0 0 6.89 16h2.22a1.55 1.55 0 0 0 1.51-1.16l.11-.46a1.26 1.26 0 0 1 .6-.78 1.38 1.38 0 0 1 1.09-.13l.47.14a1.57 1.57 0 0 0 1.78-.68l1.11-1.84a1.48 1.48 0 0 0-.28-1.87l-.36-.32Zm-.21 1.67-1.11 1.82a.58.58 0 0 1-.65.24l-.47-.14a2.4 2.4 0 0 0-1.87.23 2.209 2.209 0 0 0-1.07 1.41l-.11.45a.56.56 0 0 1-.54.4H6.89a.54.54 0 0 1-.54-.4l-.12-.45a2.19 2.19 0 0 0-1.02-1.39A2.36 2.36 0 0 0 4 12.42c-.223 0-.445.03-.66.09l-.47.14a.58.58 0 0 1-.66-.26L1.1 10.55a.47.47 0 0 1 .09-.6l.36-.33a2.21 2.21 0 0 0 .74-1.64 2.21 2.21 0 0 0-.74-1.65l-.36-.32a.48.48 0 0 1-.09-.6l1.11-1.82a.58.58 0 0 1 .65-.24l.47.14a2.45 2.45 0 0 0 1.87-.23 2.24 2.24 0 0 0 1.01-1.41l.12-.46A.54.54 0 0 1 6.87 1h2.22a.55.55 0 0 1 .54.39l.11.46a2.26 2.26 0 0 0 1.07 1.41 2.44 2.44 0 0 0 1.87.23l.53-.1a.58.58 0 0 1 .65.24l1.11 1.84a.47.47 0 0 1-.1.6l-.36.32a2.211 2.211 0 0 0-.74 1.65 2.21 2.21 0 0 0 .74 1.64l.36.33a.46.46 0 0 1 .06.56Z"/>
    </g>
  </g>
</svg>
