<svg xmlns="http://www.w3.org/2000/svg" width="16" height="16" fill="none">
  <g clip-path="url(#a)">
    <g fill="#111453" clip-path="url(#b)">
      <path d="M12.94 11.13c.15-.09.25-.25.25-.43V5.3c0-.18-.1-.34-.25-.43l-4.69-2.7a.497.497 0 0 0-.5 0l-4.69 2.7c-.15.09-.25.25-.25.43v5.4c0 .18.1.34.25.43l4.69 2.7h.02c.07.04.14.06.23.06s.16-.02.23-.06h.02l4.69-2.7Zm-4.44 1.4V8.49l3.69-2.12v4.04L8.5 12.53ZM8 3.17l3.86 2.22L8 7.61 4.14 5.39 8 3.17Zm-4.19 3.2L7.5 8.49v4.04l-3.69-2.12V6.37ZM.5 3.87c.28 0 .5-.22.5-.5V1h2.38c.28 0 .5-.22.5-.5s-.22-.5-.5-.5H.5C.22 0 0 .22 0 .5v2.87c0 .28.22.5.5.5ZM2.63 15H1v-2.37c0-.28-.22-.5-.5-.5s-.5.22-.5.5v2.87c0 .28.22.5.5.5h2.13c.28 0 .5-.22.5-.5s-.22-.5-.5-.5Zm12.87-2.87c-.28 0-.5.22-.5.5V15h-2.38c-.28 0-.5.22-.5.5s.22.5.5.5h2.88c.28 0 .5-.22.5-.5v-2.87c0-.28-.22-.5-.5-.5Zm0-12.1h-2.88c-.28 0-.5.22-.5.5s.22.5.5.5H15V3.4c0 .28.22.5.5.5s.5-.22.5-.5V.53c0-.28-.22-.5-.5-.5Z"/>
    </g>
  </g>
  <defs>
    <clipPath id="a">
      <path fill="#fff" d="M0 0h16v16H0z"/>
    </clipPath>
    <clipPath id="b">
      <path fill="#fff" d="M0 0h16v16H0z"/>
    </clipPath>
  </defs>
</svg>
